<svg width="29" height="27" viewBox="0 0 29 27" fill="none" xmlns="http://www.w3.org/2000/svg">
<path d="M14.1525 0C6.33251 0 0 5.94118 0 13.2616C0 20.582 6.33251 26.5231 14.1525 26.5231C21.9867 26.5231 28.3334 20.582 28.3334 13.2616C28.3334 5.94118 21.9867 0 14.1525 0ZM14.1667 23.8708C7.90501 23.8708 2.83334 19.1232 2.83334 13.2616C2.83334 7.39995 7.90501 2.65231 14.1667 2.65231C20.4284 2.65231 25.5 7.39995 25.5 13.2616C25.5 19.1232 20.4284 23.8708 14.1667 23.8708ZM13.855 6.63078H13.77C13.2034 6.63078 12.75 7.05515 12.75 7.58562V13.8451C12.75 14.3092 13.005 14.7469 13.4442 14.9856L19.3234 18.2877C19.805 18.5529 20.4284 18.4203 20.7117 17.9694C21.0092 17.5185 20.8534 16.9218 20.3575 16.6565L14.875 13.6064V7.58562C14.875 7.05515 14.4217 6.63078 13.855 6.63078Z" fill="#4F4F4F"/>
</svg>
