<svg width="28" height="26" viewBox="0 0 28 26" fill="none" xmlns="http://www.w3.org/2000/svg">
<path d="M8.475 14.8983L12.4842 10.8891L3.715 2.13411C3.035 1.45411 1.85917 1.63827 1.43417 2.51661C0.428334 4.62744 0.796667 7.21994 2.53917 8.97661L8.475 14.8983ZM18.08 12.3341C20.2475 13.3399 23.2933 12.6316 25.5458 10.3791C28.2517 7.67327 28.7758 3.79161 26.6933 1.70911C24.625 -0.359227 20.7433 0.150773 18.0233 2.85661C15.7708 5.10911 15.0625 8.15494 16.0683 10.3224L3.2475 23.1433C2.695 23.6958 2.695 24.5883 3.2475 25.1408C3.8 25.6933 4.6925 25.6933 5.245 25.1408L14 16.4141L22.755 25.1691C23.3075 25.7216 24.2 25.7216 24.7525 25.1691C25.305 24.6166 25.305 23.7241 24.7525 23.1716L15.9975 14.4166L18.08 12.3341Z" fill="#F2994A"/>
</svg>
